<?xml version="1.0" encoding="UTF-8"?>
<svg width="10px" height="21px" viewBox="0 0 10 21" version="1.1" xmlns="http://www.w3.org/2000/svg" xmlns:xlink="http://www.w3.org/1999/xlink">
    <!-- Generator: Sketch 61 (89581) - https://sketch.com -->
    <title>good_no_active</title>
    <desc>Created with Sketch.</desc>
    <g id="кинодром" stroke="none" stroke-width="1" fill="none" fill-rule="evenodd" opacity="0.498349144">
        <g id="good_no_active">
            <path d="M0.648839732,6.851375 C0.652214732,6.692375 0.646589732,6.533375 0.631964732,6.374875 L0.587964732,4.502375 C0.475089732,3.284875 0.760214732,1.72275 1.62483973,0.85825 C2.36796473,0.115 3.52383973,-3.55271368e-15 4.65783973,-3.55271368e-15 L5.14833973,-3.55271368e-15 C6.28233973,-3.55271368e-15 7.43821473,0.115 8.18146473,0.85825 C9.04596473,1.72275 9.37408973,3.284875 9.26133973,4.502375 L9.17408973,6.374875 C9.15946473,6.533375 9.15383973,6.692375 9.15733973,6.851375 L9.38421473,17.56075 C9.38421473,18.921375 8.28121473,20.877625 6.92058973,20.877625 L2.88571473,20.877625 C1.52508973,20.877625 0.422089732,18.921375 0.422089732,17.56075 L0.648839732,6.851375 Z" id="Fill-36" fill="#C8C7CC"></path>
            <path d="M1.14176473,6.9726 C1.14476473,6.818975 1.13988973,6.665225 1.12688973,6.512225 L1.08788973,4.702975 C0.988139732,3.5266 1.24026473,2.017225 2.00463973,1.18185 C2.66163973,0.46385 3.68363973,0.352725 4.68626473,0.352725 L5.11988973,0.352725 C6.12263973,0.352725 7.14438973,0.46385 7.80151473,1.18185 C8.56601473,2.017225 8.85613973,3.5266 8.75638973,4.702975 L8.67926473,6.512225 C8.66626473,6.665225 8.66126473,6.818975 8.66451473,6.9726 L8.86488973,17.320225 C8.86488973,18.63485 7.88976473,20.524975 6.68676473,20.524975 L3.11938973,20.524975 C1.91638973,20.524975 0.941264732,18.63485 0.941264732,17.320225 L1.14176473,6.9726 Z" id="Fill-38" fill="#C8C7CC"></path>
            <path d="M0.941202232,6.69135 L0.941202232,7.10785 L0.00795223228,7.337475 C0.00795223228,7.337475 -0.149922768,6.69135 0.941202232,6.69135" id="Fill-40" fill="#E2DFE6"></path>
            <path d="M8.86490223,6.69135 L8.86490223,7.10785 L9.79827723,7.337475 C9.79827723,7.337475 9.95615223,6.69135 8.86490223,6.69135" id="Fill-42" fill="#E2DFE6"></path>
            <path d="M3.03653973,0.3526625 C1.67778973,0.7087875 1.38653973,1.4444125 1.14066473,1.9020375 C1.03891473,2.0914125 0.950039732,2.3541625 0.880414732,2.6762875 C1.68778973,1.9855375 2.41253973,1.2040375 3.03653973,0.3526625" id="Fill-44" fill="#F9F9F9"></path>
            <path d="M1.41177723,12.1640625 C1.44290223,12.1718125 1.47440223,12.1796875 1.50627723,12.1876875 L1.50627723,9.7764375 C1.50627723,8.5723125 0.931902232,6.3491875 0.931902232,6.3491875 C0.931902232,6.3491875 0.817777232,10.1198125 0.929277232,12.0301875 C1.08502723,12.0854375 1.25215223,12.1238125 1.41177723,12.1640625" id="Fill-46" fill="#45474A"></path>
            <path d="M0.945839732,12.2783875 C1.08033973,14.0740125 1.50621473,15.4731375 1.50621473,15.4731375 L1.50621473,12.4096375 C1.31846473,12.3686375 1.13221473,12.3233875 0.945839732,12.2783875" id="Fill-48" fill="#45474A"></path>
            <path d="M2.55752723,20.2757625 C2.00240223,19.6758875 1.53927723,18.9731375 1.19340223,18.2060125 C1.16227723,18.5206375 1.17515223,18.8402625 1.22977723,19.1510125 C1.40302723,19.5225125 1.65815223,19.8258875 2.02890223,20.0678875 C2.24415223,20.2082625 2.46377723,20.3261375 2.68115223,20.4252625 C2.64340223,20.3717625 2.59965223,20.3212625 2.55752723,20.2757625" id="Fill-50" fill="#F3482A"></path>
            <path d="M6.86807723,0.3526625 C8.22682723,0.7087875 8.51807723,1.4444125 8.76395223,1.9020375 C8.86582723,2.0914125 8.95457723,2.3541625 9.02420223,2.6762875 C8.21682723,1.9855375 7.49207723,1.2040375 6.86807723,0.3526625" id="Fill-52" fill="#F9F9F9"></path>
            <path d="M7.87552723,4.6227375 C7.29190223,4.4306125 6.37127723,4.2562375 4.95227723,4.2562375 C3.53340223,4.2562375 2.61265223,4.4306125 2.02915223,4.6227375 C1.47890223,4.8037375 1.14877723,5.3484875 1.25715223,5.9023625 L1.82877723,8.8252375 C1.84815223,8.9243625 1.93790223,8.9957375 2.04190223,8.99511657 C3.51465223,8.9871125 4.95227723,8.8841125 4.95227723,8.8841125 C4.95227723,8.8841125 6.38990223,8.9871125 7.86277723,8.99511657 C7.96665223,8.9957375 8.05640223,8.9243625 8.07590223,8.8252375 L8.64752723,5.9023625 C8.75590223,5.3484875 8.42565223,4.8037375 7.87552723,4.6227375" id="Fill-54" fill="#45474A"></path>
            <path d="M7.24868973,20.2757625 C7.80381473,19.6758875 8.26693973,18.9731375 8.61281473,18.2060125 C8.64393973,18.5206375 8.63093973,18.8402625 8.57631473,19.1510125 C8.40306473,19.5225125 8.14793973,19.8258875 7.77731473,20.0678875 C7.56206473,20.2082625 7.34231473,20.3261375 7.12506473,20.4252625 C7.16281473,20.3717625 7.20656473,20.3212625 7.24868973,20.2757625" id="Fill-56" fill="#F3482A"></path>
            <path d="M8.49283973,12.1640625 C8.46183973,12.1718125 8.43021473,12.1796875 8.39833973,12.1876875 L8.39833973,9.7764375 C8.39833973,8.5723125 8.97283973,6.3491875 8.97283973,6.3491875 C8.97283973,6.3491875 9.08683973,10.1198125 8.97533973,12.0301875 C8.81958973,12.0854375 8.65246473,12.1238125 8.49283973,12.1640625" id="Fill-58" fill="#45474A"></path>
            <path d="M8.95877723,12.2783875 C8.82427723,14.0740125 8.39840223,15.4731375 8.39840223,15.4731375 L8.39840223,12.4096375 C8.58615223,12.3686375 8.77252723,12.3233875 8.95877723,12.2783875" id="Fill-60" fill="#45474A"></path>
            <path d="M7.70377723,15.664125 C7.70377723,15.664125 6.55152723,16.245625 4.95227723,16.245625 C3.35302723,16.245625 2.20090223,15.664125 2.20090223,15.664125 C1.97590223,16.30925 1.88890223,17.17375 1.85702723,17.639 C1.84277723,17.8455 1.95390223,18.04025 2.13940223,18.132 C2.62215223,18.37075 3.65040223,18.787125 4.95227723,18.787125 C6.25415223,18.787125 7.28252723,18.37075 7.76515223,18.132 C7.95077723,18.04025 8.06190223,17.8455 8.04765223,17.639 C8.01565223,17.17375 7.92890223,16.30925 7.70377723,15.664125" id="Fill-62" fill="#45474A"></path>
        </g>
    </g>
</svg>