<?xml version="1.0" encoding="UTF-8"?>
<svg width="12px" height="21px" viewBox="0 0 12 21" version="1.1" xmlns="http://www.w3.org/2000/svg" xmlns:xlink="http://www.w3.org/1999/xlink">
    <!-- Generator: Sketch 61 (89581) - https://sketch.com -->
    <title>lux_no_active</title>
    <desc>Created with Sketch.</desc>
    <defs>
        <polygon id="path-1" points="0.0682258621 0.0928103448 9.46138103 0.0928103448 9.46138103 20.888181 0.0682258621 20.888181"></polygon>
    </defs>
    <g id="кинодром" stroke="none" stroke-width="1" fill="none" fill-rule="evenodd" opacity="0.500581287">
        <g id="lux_no_active">
            <g id="Group-69" transform="translate(0.978926, 0.000000)">
                <mask id="mask-2" fill="white">
                    <use xlink:href="#path-1"></use>
                </mask>
                <g id="Clip-68"></g>
                <path d="M1.84284655,20.888181 L7.68688103,20.888181 C8.66688103,20.888181 9.46138103,20.0938017 9.46138103,19.113681 L9.46138103,3.25373276 C9.46138103,1.5079569 8.04617414,0.09275 6.30051897,0.09275 L3.22908793,0.09275 C1.48343276,0.09275 0.0682258621,1.5079569 0.0682258621,3.25373276 L0.0682258621,19.113681 C0.0682258621,20.0938017 0.862725862,20.888181 1.84284655,20.888181" id="Fill-67" fill="#C8C7CC" mask="url(#mask-2)"></path>
            </g>
            <path d="M2.34302069,15.4646414 L2.49472759,8.39017586 L1.24800345,3.65371034 C1.24800345,1.90805517 2.81986552,0.492848276 4.75886552,0.492848276 L6.72876207,0.492848276 C8.66764138,0.492848276 10.2396241,1.90805517 10.2396241,3.65371034 L8.9929,8.39017586 L9.14436552,15.4646414 C9.14436552,17.1293138 2.34302069,17.1293138 2.34302069,15.4646414" id="Fill-70" fill="#C8C7CC"></path>
            <path d="M1.22427586,5.97795172 C1.48387931,5.93824483 1.40132759,6.39384828 1.22427586,6.49788276 C1.04710345,6.60179655 8.57551578e-16,6.80974483 8.57551578e-16,6.80974483 C8.57551578e-16,6.80974483 8.57551578e-16,6.16514138 1.22427586,5.97795172" id="Fill-72" fill="#A1A1A1"></path>
            <path d="M10.2632672,5.97795172 C10.0036638,5.93824483 10.0860948,6.39384828 10.2632672,6.49788276 C10.440319,6.60179655 11.4874224,6.80974483 11.4874224,6.80974483 C11.4874224,6.80974483 11.4874224,6.16514138 10.2632672,5.97795172" id="Fill-74" fill="#A1A1A1"></path>
            <path d="M1.38952414,5.52005517 C1.38952414,5.52005517 2.10195517,8.74995172 2.17135172,9.37017586 C2.24062759,9.99052069 2.30990345,17.6907621 2.17135172,17.968831 C2.03267931,18.2469 1.82038621,18.1826931 1.82038621,18.1826931 C1.82038621,18.1826931 1.38952414,16.5784862 1.38952414,12.7925724 L1.38952414,5.52005517 Z" id="Fill-76" fill="#45474A"></path>
            <path d="M10.098031,5.52005517 C10.098031,5.52005517 9.3856,8.74995172 9.31620345,9.37017586 C9.24692759,9.99052069 9.17765172,17.6907621 9.31620345,17.968831 C9.45487586,18.2469 9.66716897,18.1826931 9.66716897,18.1826931 C9.66716897,18.1826931 10.098031,16.5784862 10.098031,12.7925724 L10.098031,5.52005517 Z" id="Fill-78" fill="#45474A"></path>
            <path d="M2.49470345,9.04934655 C2.49470345,9.04934655 1.6773931,5.79808793 1.82041034,5.19922586 C1.96342759,4.6002431 3.76037586,4.1511569 5.74378966,4.1511569 C7.72708276,4.1511569 9.52415172,4.6002431 9.66716897,5.19922586 C9.81006552,5.79808793 8.99287586,9.04934655 8.99287586,9.04934655 C8.99287586,9.04934655 7.89653103,8.85684655 5.74378966,8.85684655 C3.59104828,8.85684655 2.49470345,9.04934655 2.49470345,9.04934655" id="Fill-80" fill="#45474A"></path>
            <path d="M3.46893448,1.13227414 C3.45807241,0.979481034 3.35379655,0.841412069 3.21838276,0.75355 C3.21741724,0.752946552 3.21645172,0.752463793 3.21548621,0.751860345 C2.63871034,0.96017069 2.15124483,1.3333431 1.82043448,1.80910172 C2.2216069,1.92218793 2.67226207,1.88465345 3.04096897,1.69818793 C3.27172759,1.58160172 3.4861931,1.37522241 3.46893448,1.13227414" id="Fill-82" fill="#FBFBFB"></path>
            <path d="M8.01848793,1.13227414 C8.02935,0.979481034 8.13374655,0.841412069 8.26916034,0.75355 C8.27000517,0.752946552 8.27097069,0.752463793 8.27193621,0.751860345 C8.84883276,0.96017069 9.33629828,1.3333431 9.66710862,1.80910172 C9.26593621,1.92218793 8.81528103,1.88465345 8.44645345,1.69818793 C8.21581552,1.58160172 8.00122931,1.37522241 8.01848793,1.13227414" id="Fill-84" fill="#FBFBFB"></path>
            <path d="M2.5579931,20.2800259 C2.26544138,20.2001293 1.99425172,20.0575948 1.77302759,19.86775 C1.71545862,19.8182672 1.65957931,19.7645603 1.58764828,19.7336638 C1.53804483,19.7123017 1.47818276,19.7049397 1.4264069,19.7182155 C1.73645862,20.0999569 2.21173448,20.3655948 2.75737241,20.4306466 C2.75737241,20.4288362 2.75809655,20.4273879 2.75797586,20.4255776 C2.75507931,20.3429052 2.64597586,20.3041638 2.5579931,20.2800259" id="Fill-86" fill="#F3482A"></path>
            <path d="M8.92956207,20.2800259 C9.22211379,20.2001293 9.49330345,20.0575948 9.71452759,19.86775 C9.77209655,19.8182672 9.82797586,19.7645603 9.8999069,19.7336638 C9.94938966,19.7123017 10.0092517,19.7049397 10.0610276,19.7182155 C9.75109655,20.0999569 9.27582069,20.3655948 8.73018276,20.4306466 C8.73006207,20.4288362 8.72945862,20.4273879 8.72945862,20.4255776 C8.73247586,20.3429052 8.84157931,20.3041638 8.92956207,20.2800259" id="Fill-88" fill="#F3482A"></path>
            <path d="M8.69442241,16.7444345 C8.69442241,16.7444345 7.45880172,17.3058828 5.74380172,17.3058828 C4.02868103,17.3058828 2.79306034,16.7444345 2.79306034,16.7444345 C2.55180172,17.3671931 2.45850862,18.2018828 2.42423276,18.6512103 C2.40902586,18.8505897 2.52826724,19.0386241 2.72716379,19.1272103 C3.24480172,19.3577276 4.3475431,19.7597448 5.74380172,19.7597448 C7.13993966,19.7597448 8.24268103,19.3577276 8.76031897,19.1272103 C8.95921552,19.0386241 9.07857759,18.8505897 9.06325,18.6512103 C9.02885345,18.2018828 8.93580172,17.3671931 8.69442241,16.7444345" id="Fill-90" fill="#45474A"></path>
        </g>
    </g>
</svg>