<svg width="135" height="69" viewBox="0 0 135 69" fill="none" xmlns="http://www.w3.org/2000/svg">
<path fill-rule="evenodd" clip-rule="evenodd" d="M119.886 18.7869V35.5498H113.978V23.7924H108.289V35.5498H102.381V18.7869H119.886Z" fill="#2A273F"/>
<path fill-rule="evenodd" clip-rule="evenodd" d="M99.5165 28.0911C99.5165 32.9672 95.455 36.1864 89.9865 36.1864C84.332 36.1864 80.2073 32.7798 80.2073 25.0594C80.2073 18.4336 84.4376 12.9736 90.6969 12.8695C93.4383 12.8695 99.3308 12.7396 99.3308 12.7396L96.6773 17.6126C96.6773 17.6126 91.9842 17.6202 91.362 17.6202C88.6606 17.6202 86.2063 19.6523 85.8618 22.4345C87.2992 21.0904 89.2052 20.3086 91.5177 20.3086C96.5175 20.3086 99.5165 23.372 99.5165 28.0911ZM93.4553 28.0911C93.4553 25.9031 92.0482 24.6224 90.0182 24.6224C87.9249 24.6224 86.5191 25.9349 86.5191 28.1227C86.5191 30.1851 87.9249 31.6865 90.0182 31.6865C92.2053 31.6865 93.4553 30.061 93.4553 28.0911Z" fill="#2A273F"/>
<path fill-rule="evenodd" clip-rule="evenodd" d="M75.4452 30.4528C75.4452 30.4528 74.0156 31.261 71.8829 31.4161C69.4283 31.4856 67.2457 29.9687 67.2457 27.2652C67.2457 24.627 69.176 23.1165 71.8209 23.1165C73.4447 23.1165 75.5935 24.2223 75.5935 24.2223C75.5935 24.2223 77.1641 21.3894 77.9789 19.9754C76.4893 18.864 74.5008 18.2565 72.194 18.2565C66.3654 18.2565 61.8526 21.9888 61.8526 27.2326C61.8526 32.5417 66.0945 36.1888 72.194 36.0779C73.9007 36.0136 76.2526 35.4281 77.6845 34.525L75.4452 30.4528Z" fill="#2A273F"/>
<path fill-rule="evenodd" clip-rule="evenodd" d="M0 15.498L8.1693 30.063V38.9431L0.0133348 53.4797L0 15.498H0Z" fill="#605CA4"/>
<path fill-rule="evenodd" clip-rule="evenodd" d="M31.4038 24.741L39.0659 20.0719L54.7446 20.0601L31.4038 34.2767V24.741Z" fill="#DA2157"/>
<path fill-rule="evenodd" clip-rule="evenodd" d="M31.3615 15.4199L31.4038 34.7011L23.2346 29.6841V0.857056L31.3615 15.4199Z" fill="#FAB828"/>
<path fill-rule="evenodd" clip-rule="evenodd" d="M54.7445 20.0482L39.0795 20.0601L31.3816 15.398L23.2346 0.857056L54.7445 20.0482Z" fill="#EE7332"/>
<path fill-rule="evenodd" clip-rule="evenodd" d="M31.4039 53.5444V44.1861L23.2346 39.2631L23.2359 68.1207L31.4039 53.5444Z" fill="#66B438"/>
<path fill-rule="evenodd" clip-rule="evenodd" d="M39.068 48.9177L8.18564 30.0599L0 15.498L54.7445 48.8993L39.068 48.9177Z" fill="#208ACA"/>
<path fill-rule="evenodd" clip-rule="evenodd" d="M23.2346 68.1209L31.4305 53.5669L39.075 48.9362L54.7445 48.9178L23.2346 68.1209Z" fill="#1B823E"/>
<path fill-rule="evenodd" clip-rule="evenodd" d="M0 53.4797L23.3407 39.2721L15.4918 34.4888L8.19732 38.931L0 53.4797H0Z" fill="#9A4F98"/>
<path fill-rule="evenodd" clip-rule="evenodd" d="M67.6878 46.9335C67.5042 47.1676 67.267 47.3445 66.9766 47.4643C66.6855 47.5844 66.3759 47.6445 66.0472 47.6445C65.706 47.6445 65.3963 47.5924 65.1181 47.4881C64.84 47.3838 64.5999 47.2338 64.3976 47.0378C64.195 46.8418 64.0388 46.6065 63.9283 46.3314C63.8175 46.0565 63.7622 45.7517 63.7622 45.4167C63.7622 45.107 63.8158 44.8163 63.9235 44.5443C64.031 44.2728 64.181 44.037 64.3739 43.8381C64.5666 43.6388 64.7941 43.4811 65.0565 43.3641C65.3188 43.2471 65.6079 43.1886 65.924 43.1886C66.2653 43.1886 66.5798 43.2313 66.8675 43.3165C67.1549 43.402 67.4 43.5458 67.6023 43.748L67.2514 44.3453C67.0681 44.181 66.8737 44.0656 66.6682 43.9991C66.4629 43.9329 66.2495 43.8996 66.0283 43.8996C65.8386 43.8996 65.6554 43.9362 65.4784 44.0088C65.3014 44.0815 65.145 44.184 65.0091 44.3168C64.873 44.4494 64.7658 44.6094 64.6867 44.7957C64.6075 44.9823 64.5682 45.1892 64.5682 45.4167C64.5682 45.6506 64.6091 45.8608 64.6914 46.0471C64.7736 46.2336 64.8842 46.3932 65.0233 46.5259C65.1624 46.6587 65.3251 46.7598 65.5116 46.8292C65.698 46.8988 65.8955 46.9335 66.1041 46.9335C66.3632 46.9335 66.5957 46.8829 66.801 46.7818C67.0065 46.6808 67.1818 46.5482 67.3272 46.3837L67.6878 46.9335Z" fill="#2A273F"/>
<path fill-rule="evenodd" clip-rule="evenodd" d="M68.6426 47.5384V43.2946H69.3902V46.454L71.8205 43.2946H72.5682V47.5384H71.8205V44.3791L69.3902 47.5384H68.6426Z" fill="#2A273F"/>
<path fill-rule="evenodd" clip-rule="evenodd" d="M77.6608 46.9335C77.4773 47.1676 77.2404 47.3445 76.9496 47.4643C76.6588 47.5844 76.3488 47.6445 76.0202 47.6445C75.6788 47.6445 75.3693 47.5924 75.0913 47.4881C74.8126 47.3838 74.5723 47.2338 74.3701 47.0378C74.1679 46.8418 74.0114 46.6065 73.9009 46.3314C73.7904 46.0565 73.7353 45.7517 73.7353 45.4167C73.7353 45.107 73.7885 44.8163 73.8963 44.5443C74.0036 44.2728 74.1539 44.037 74.3467 43.8381C74.5391 43.6388 74.7672 43.4811 75.0294 43.3641C75.2916 43.2471 75.581 43.1886 75.897 43.1886C76.2383 43.1886 76.5526 43.2313 76.8405 43.3165C77.1279 43.402 77.3729 43.5458 77.5756 43.748L77.2245 44.3453C77.0408 44.181 76.8465 44.0656 76.6415 43.9991C76.4359 43.9329 76.2224 43.8996 76.0015 43.8996C75.8118 43.8996 75.6282 43.9362 75.4512 44.0088C75.2743 44.0815 75.1179 44.184 74.9821 44.3168C74.8458 44.4494 74.7387 44.6094 74.6594 44.7957C74.5803 44.9823 74.541 45.1892 74.541 45.4167C74.541 45.6506 74.5823 45.8608 74.6642 46.0471C74.7466 46.2336 74.857 46.3932 74.9961 46.5259C75.1353 46.6587 75.2981 46.7598 75.4845 46.8292C75.671 46.8988 75.8685 46.9335 76.0773 46.9335C76.3362 46.9335 76.5684 46.8829 76.774 46.7818C76.9795 46.6808 77.1547 46.5482 77.3003 46.3837L77.6608 46.9335Z" fill="#2A273F"/>
<path fill-rule="evenodd" clip-rule="evenodd" d="M77.9789 43.2946H81.9045V44.0492H80.3244V47.5384H79.5585V44.0492H77.9789V43.2946Z" fill="#2A273F"/>
<path fill-rule="evenodd" clip-rule="evenodd" d="M86.1682 47.0851C85.9561 47.2747 85.7042 47.4156 85.4126 47.5072C85.1203 47.5986 84.8305 47.6445 84.5416 47.6445C84.189 47.6445 83.8697 47.5924 83.584 47.4881C83.2985 47.3838 83.0547 47.2338 82.8528 47.0378C82.6508 46.8418 82.4949 46.6065 82.3861 46.3314C82.2768 46.0565 82.2226 45.7517 82.2226 45.4167C82.2226 45.107 82.272 44.8163 82.3714 44.5443C82.4712 44.2728 82.6152 44.037 82.8047 43.8381C82.994 43.6388 83.2262 43.4811 83.5024 43.3641C83.7779 43.2471 84.0959 43.1886 84.455 43.1886C84.7306 43.1886 84.9926 43.2361 85.2392 43.3308C85.4862 43.4257 85.6996 43.5584 85.8791 43.7289C86.0588 43.8996 86.2018 44.1051 86.3073 44.3453C86.4132 44.5854 86.4665 44.8508 86.4665 45.1416C86.4665 45.3376 86.4503 45.5082 86.418 45.6536H83.0884C83.1207 46.0582 83.2748 46.3727 83.5503 46.5968C83.8264 46.8214 84.1761 46.9335 84.5996 46.9335C84.8818 46.9335 85.1383 46.8908 85.3694 46.8054C85.6003 46.7203 85.7861 46.6144 85.9272 46.488L86.1682 47.0851ZM84.4166 43.8996C84.0189 43.8996 83.701 44.0073 83.4639 44.222C83.2262 44.4371 83.0851 44.7089 83.0405 45.0374H85.6677C85.6482 44.6835 85.5295 44.4054 85.3113 44.2029C85.0933 44.0007 84.7947 43.8996 84.4166 43.8996Z" fill="#2A273F"/>
<path fill-rule="evenodd" clip-rule="evenodd" d="M87.4215 43.2946H88.1137L89.7548 45.3978L91.3102 43.2946H91.9836V47.5384H91.2249V44.4452L89.7455 46.4163H89.7169L88.1802 44.4452V47.5384H87.4215V43.2946Z" fill="#2A273F"/>
<path fill-rule="evenodd" clip-rule="evenodd" d="M93.3776 43.5704C93.5673 43.4525 93.7852 43.3594 94.0317 43.291C94.2783 43.2228 94.5343 43.1886 94.7995 43.1886C95.4062 43.1886 95.8312 43.3375 96.0744 43.6357C96.3181 43.9339 96.4398 44.356 96.4398 44.9024V47.473H95.7265V46.9329C95.5996 47.0943 95.4282 47.2355 95.2127 47.3567C94.9971 47.4777 94.7121 47.5385 94.3572 47.5385C93.964 47.5385 93.6472 47.425 93.4062 47.1983C93.1649 46.9718 93.0447 46.6535 93.0447 46.2438C93.0447 46.0326 93.086 45.8432 93.1682 45.6755C93.2508 45.508 93.363 45.368 93.5058 45.2563C93.6485 45.1445 93.82 45.0592 94.0196 45.0001C94.2191 44.9412 94.4333 44.9119 94.6614 44.9119C94.8262 44.9119 95.0084 44.9304 95.208 44.9677C95.4081 45.0049 95.5804 45.0762 95.7265 45.1818C95.7265 44.9896 95.7152 44.811 95.6931 44.6462C95.671 44.4819 95.6265 44.3422 95.5602 44.2273C95.4936 44.1122 95.3949 44.0221 95.2653 43.9571C95.1352 43.8917 94.9658 43.8593 94.7563 43.8593C94.4901 43.8593 94.2698 43.8888 94.0956 43.9476C93.9209 44.0068 93.7486 44.0796 93.5771 44.1665L93.3776 43.5704ZM94.6234 46.8676C94.9024 46.8676 95.1286 46.8087 95.3034 46.6907C95.4776 46.5728 95.6184 46.4519 95.7265 46.3275V45.7964C95.4602 45.6103 95.14 45.517 94.7661 45.517C94.652 45.517 94.5393 45.5312 94.4285 45.5592C94.3172 45.587 94.2191 45.6289 94.1336 45.6847C94.0481 45.7406 93.9796 45.812 93.9289 45.8991C93.8782 45.986 93.8528 46.0885 93.8528 46.2065C93.8528 46.4051 93.9195 46.565 94.0529 46.6859C94.1857 46.8071 94.376 46.8676 94.6234 46.8676Z" fill="#2A273F"/>
<path fill-rule="evenodd" clip-rule="evenodd" d="M103.535 41.4439C103.402 41.6185 103.258 41.74 103.103 41.8087C102.947 41.8774 102.78 41.9302 102.599 41.9677C102.419 42.0052 102.225 42.0413 102.019 42.076C101.813 42.1106 101.593 42.1817 101.359 42.289C101.157 42.3773 100.99 42.4973 100.861 42.649C100.731 42.8003 100.625 42.9691 100.542 43.1554C100.46 43.3416 100.398 43.5375 100.357 43.7427C100.316 43.9478 100.289 44.1481 100.276 44.3438H100.295C100.365 44.1929 100.458 44.0576 100.575 43.9383C100.693 43.819 100.825 43.7151 100.975 43.6271C101.123 43.5391 101.283 43.4714 101.454 43.4244C101.625 43.377 101.803 43.3536 101.987 43.3536C102.291 43.3536 102.566 43.4038 102.813 43.5044C103.06 43.6051 103.269 43.7482 103.44 43.9335C103.611 44.1191 103.743 44.3408 103.834 44.5983C103.926 44.8564 103.972 45.1454 103.972 45.4661C103.972 45.7616 103.918 46.0413 103.811 46.3055C103.703 46.5695 103.553 46.8005 103.359 46.9987C103.166 47.1966 102.935 47.3538 102.666 47.4702C102.396 47.5863 102.101 47.6445 101.777 47.6445C101.429 47.6445 101.115 47.5833 100.837 47.4606C100.558 47.3381 100.321 47.1634 100.124 46.9372C99.928 46.7109 99.7773 46.4342 99.6728 46.1074C99.5681 45.7804 99.5161 45.4127 99.5161 45.004C99.5161 44.6895 99.5352 44.3612 99.5733 44.0183C99.6113 43.6758 99.6874 43.3473 99.8013 43.0329C99.9153 42.7186 100.075 42.4341 100.281 42.1793C100.487 41.9249 100.761 41.7252 101.103 41.5805C101.35 41.4738 101.575 41.403 101.777 41.3684C101.98 41.3339 102.162 41.3023 102.324 41.2741C102.485 41.2457 102.633 41.2049 102.765 41.1513C102.899 41.0981 103.019 40.9992 103.127 40.8545L103.535 41.4439ZM100.323 45.1454C100.323 45.422 100.359 45.6705 100.428 45.8902C100.498 46.1106 100.596 46.2975 100.723 46.4515C100.849 46.6056 101.001 46.7251 101.179 46.8098C101.356 46.8947 101.549 46.9372 101.758 46.9372C101.967 46.9372 102.157 46.8995 102.329 46.824C102.499 46.7486 102.647 46.6466 102.77 46.5176C102.894 46.3888 102.99 46.2379 103.06 46.0649C103.129 45.8919 103.165 45.705 103.165 45.5038C103.165 45.0889 103.047 44.7446 102.813 44.4711C102.579 44.1976 102.239 44.0609 101.796 44.0609C101.593 44.0609 101.41 44.0924 101.245 44.1552C101.081 44.2181 100.935 44.2998 100.808 44.4005C100.681 44.501 100.577 44.6158 100.495 44.7446C100.412 44.8735 100.355 45.0072 100.323 45.1454Z" fill="#2A273F"/>
<path fill-rule="evenodd" clip-rule="evenodd" d="M105.033 43.2946H105.783V44.5677H106.477C106.802 44.5677 107.07 44.6088 107.283 44.6904C107.495 44.7722 107.666 44.8808 107.794 45.0158C107.922 45.1509 108.013 45.3068 108.066 45.4825C108.119 45.6588 108.146 45.8409 108.146 46.0295C108.146 46.2183 108.116 46.402 108.056 46.5813C107.997 46.7604 107.9 46.9208 107.766 47.0624C107.631 47.2037 107.452 47.3185 107.227 47.4065C107.002 47.4945 106.724 47.5384 106.393 47.5384H105.033V43.2946ZM105.783 45.2751V46.8311H106.327C106.702 46.8311 106.966 46.7653 107.119 46.6333C107.272 46.5013 107.348 46.3093 107.348 46.0579C107.348 45.8002 107.27 45.6052 107.114 45.4732C106.958 45.3413 106.699 45.2751 106.336 45.2751H105.783ZM108.952 43.2946H109.701V47.5384H108.952V43.2946Z" fill="#2A273F"/>
<path fill-rule="evenodd" clip-rule="evenodd" d="M114.688 46.9335C114.504 47.1676 114.267 47.3445 113.976 47.4643C113.686 47.5844 113.376 47.6445 113.047 47.6445C112.706 47.6445 112.396 47.5924 112.118 47.4881C111.839 47.3838 111.599 47.2338 111.397 47.0378C111.195 46.8418 111.038 46.6065 110.928 46.3314C110.817 46.0565 110.762 45.7517 110.762 45.4167C110.762 45.107 110.815 44.8163 110.923 44.5443C111.03 44.2728 111.181 44.037 111.373 43.8381C111.566 43.6388 111.794 43.4811 112.056 43.3641C112.318 43.2471 112.608 43.1886 112.924 43.1886C113.265 43.1886 113.579 43.2313 113.867 43.3165C114.155 43.402 114.4 43.5458 114.602 43.748L114.251 44.3453C114.068 44.181 113.873 44.0656 113.668 43.9991C113.463 43.9329 113.249 43.8996 113.028 43.8996C112.839 43.8996 112.655 43.9362 112.478 44.0088C112.301 44.0815 112.145 44.184 112.009 44.3168C111.873 44.4494 111.766 44.6094 111.686 44.7957C111.607 44.9823 111.568 45.1892 111.568 45.4167C111.568 45.6506 111.609 45.8608 111.691 46.0471C111.773 46.2336 111.884 46.3932 112.023 46.5259C112.162 46.6587 112.325 46.7598 112.511 46.8292C112.698 46.8988 112.895 46.9335 113.104 46.9335C113.363 46.9335 113.595 46.8829 113.801 46.7818C114.006 46.6808 114.181 46.5482 114.327 46.3837L114.688 46.9335Z" fill="#2A273F"/>
<path fill-rule="evenodd" clip-rule="evenodd" d="M115.112 43.2946H118.932V44.0492H117.394V47.5384H116.649V44.0492H115.112V43.2946Z" fill="#2A273F"/>
<path fill-rule="evenodd" clip-rule="evenodd" d="M119.78 43.2834H120.53V43.7861C120.674 43.6154 120.876 43.4733 121.135 43.3593C121.395 43.2455 121.672 43.1886 121.966 43.1886C122.267 43.1886 122.537 43.2423 122.778 43.3499C123.018 43.4573 123.223 43.606 123.392 43.7958C123.561 43.9854 123.691 44.2129 123.781 44.4784C123.872 44.744 123.918 45.0348 123.918 45.351C123.918 45.6734 123.866 45.9754 123.763 46.2566C123.66 46.5381 123.511 46.7815 123.317 46.9869C123.123 47.1926 122.892 47.3536 122.623 47.4707C122.354 47.5875 122.054 47.6461 121.722 47.6461C121.497 47.6461 121.279 47.6224 121.07 47.5748C120.86 47.5275 120.681 47.4533 120.53 47.352V49.4481H119.78V43.2834ZM121.75 43.8998C121.5 43.8998 121.267 43.9568 121.051 44.0706C120.835 44.1843 120.662 44.3237 120.53 44.4878V46.6029C120.718 46.7293 120.902 46.8162 121.084 46.8637C121.266 46.9111 121.456 46.9347 121.656 46.9347C121.882 46.9347 122.085 46.8954 122.267 46.8162C122.448 46.7373 122.601 46.6298 122.726 46.4938C122.851 46.3579 122.948 46.195 123.017 46.0053C123.085 45.8157 123.12 45.6071 123.12 45.3795C123.12 45.1646 123.09 44.967 123.031 44.7865C122.972 44.6066 122.882 44.4499 122.764 44.3172C122.645 44.1843 122.501 44.0818 122.332 44.009C122.163 43.9364 121.969 43.8998 121.75 43.8998Z" fill="#2A273F"/>
<path fill-rule="evenodd" clip-rule="evenodd" d="M124.979 43.2946H125.746V44.5677H126.455C126.788 44.5677 127.062 44.6088 127.28 44.6904C127.497 44.7722 127.671 44.8808 127.802 45.0158C127.933 45.1509 128.026 45.3068 128.08 45.4825C128.134 45.6588 128.162 45.8409 128.162 46.0295C128.162 46.2183 128.131 46.402 128.07 46.5813C128.01 46.7604 127.911 46.9208 127.773 47.0624C127.636 47.2037 127.452 47.3185 127.222 47.4065C126.992 47.4945 126.708 47.5384 126.369 47.5384H124.979V43.2946ZM125.746 45.2751V46.8311H126.302C126.685 46.8311 126.955 46.7653 127.112 46.6333C127.269 46.5013 127.347 46.3093 127.347 46.0579C127.347 45.8002 127.267 45.6052 127.107 45.4732C126.947 45.3413 126.682 45.2751 126.311 45.2751H125.746ZM128.986 43.2946H129.753V47.5384H128.986V43.2946Z" fill="#2A273F"/>
<path fill-rule="evenodd" clip-rule="evenodd" d="M133.324 45.3413L134.952 47.5384H134.019L132.762 45.8221L131.487 47.5384H130.602L132.22 45.379L130.697 43.2946H131.63L132.791 44.8979L133.971 43.2946H134.857L133.324 45.3413Z" fill="#2A273F"/>
<path fill-rule="evenodd" clip-rule="evenodd" d="M67.1458 52.8078H64.8354V56.3442H64.0808V52.1005H67.9002V56.3442H67.1458V52.8078Z" fill="#2A273F"/>
<path fill-rule="evenodd" clip-rule="evenodd" d="M72.1366 52.8451H70.6552L70.6084 53.5523C70.5578 54.1479 70.4828 54.6287 70.3834 54.9947C70.2829 55.361 70.1612 55.6431 70.0177 55.8416C69.8737 56.0402 69.7079 56.1737 69.5204 56.2417C69.3329 56.3099 69.1296 56.3442 68.9111 56.3442L68.8551 55.6183C68.9361 55.6246 69.0297 55.6043 69.136 55.5577C69.2426 55.5112 69.3455 55.4088 69.4454 55.2507C69.5454 55.0924 69.6361 54.866 69.7177 54.5713C69.7986 54.2767 69.852 53.8873 69.8769 53.4035L69.9519 52.1005H72.8867V56.2883H72.1366V52.8451Z" fill="#2A273F"/>
<path fill-rule="evenodd" clip-rule="evenodd" d="M74.2806 52.3763C74.4703 52.2583 74.6883 52.1651 74.9347 52.0969C75.1813 52.0285 75.4373 51.9944 75.7025 51.9944C76.3092 51.9944 76.7342 52.1434 76.9774 52.4416C77.2211 52.7396 77.3428 53.1618 77.3428 53.7082V56.2789H76.6295V55.7388C76.5026 55.9002 76.3313 56.0414 76.1158 56.1625C75.9002 56.2836 75.6151 56.3442 75.2602 56.3442C74.8671 56.3442 74.5502 56.2309 74.3092 56.0042C74.068 55.7777 73.9478 55.4594 73.9478 55.0496C73.9478 54.8385 73.9891 54.649 74.0713 54.4814C74.1539 54.3136 74.266 54.1739 74.4089 54.0622C74.5516 53.9504 74.7231 53.865 74.9226 53.806C75.1221 53.7471 75.3363 53.7175 75.5645 53.7175C75.7293 53.7175 75.9115 53.7363 76.111 53.7735C76.3112 53.8108 76.4835 53.882 76.6295 53.9877C76.6295 53.7955 76.6182 53.6167 76.5961 53.4521C76.5741 53.2876 76.5295 53.1481 76.4632 53.033C76.3966 52.918 76.2979 52.828 76.1684 52.7628C76.0383 52.6975 75.8688 52.6651 75.6593 52.6651C75.3931 52.6651 75.1729 52.6946 74.9986 52.7534C74.8239 52.8124 74.6516 52.8853 74.4801 52.9724L74.2806 52.3763ZM75.5264 55.6735C75.8053 55.6735 76.0317 55.6146 76.2064 55.4966C76.3806 55.3787 76.5214 55.2577 76.6295 55.1332V54.6024C76.3631 54.4161 76.043 54.3229 75.6691 54.3229C75.555 54.3229 75.4423 54.3369 75.3315 54.365C75.2203 54.3929 75.1222 54.4346 75.0367 54.4906C74.9512 54.5464 74.8827 54.618 74.832 54.7048C74.7813 54.7917 74.7559 54.8944 74.7559 55.0123C74.7559 55.211 74.8225 55.3709 74.9558 55.4918C75.0888 55.6131 75.279 55.6735 75.5264 55.6735Z" fill="#2A273F"/>
<path fill-rule="evenodd" clip-rule="evenodd" d="M78.0853 52.1005H81.9047V52.855H80.3673V56.3442H79.6222V52.855H78.0853V52.1005Z" fill="#2A273F"/>
<path fill-rule="evenodd" clip-rule="evenodd" d="M86.1755 55.7981C85.9688 55.9832 85.7232 56.1208 85.4388 56.2101C85.1539 56.2994 84.8713 56.3443 84.5896 56.3443C84.2458 56.3443 83.9345 56.2933 83.656 56.1916C83.3776 56.0897 83.1399 55.9433 82.943 55.752C82.7461 55.5607 82.5941 55.3308 82.4881 55.0623C82.3816 54.7941 82.3287 54.4963 82.3287 54.1693C82.3287 53.8671 82.3768 53.5833 82.4737 53.3179C82.5711 53.0526 82.7115 52.8226 82.8962 52.6284C83.0805 52.434 83.3072 52.28 83.5764 52.1656C83.8451 52.0514 84.155 51.9944 84.5053 51.9944C84.7739 51.9944 85.0291 52.0407 85.2696 52.1333C85.5106 52.2257 85.7186 52.3553 85.8938 52.5219C86.0688 52.6885 86.2082 52.8891 86.3112 53.1235C86.4144 53.358 86.4664 53.6171 86.4664 53.9008C86.4664 54.0921 86.4506 54.2587 86.4191 54.4007H83.1729C83.2043 54.7957 83.3543 55.1025 83.6232 55.3215C83.8923 55.5405 84.2333 55.6501 84.646 55.6501C84.9214 55.6501 85.1714 55.6085 85.3966 55.525C85.6218 55.4418 85.803 55.3386 85.9406 55.2153L86.1755 55.7981ZM84.4677 52.6885C84.0799 52.6885 83.7701 52.7936 83.5389 53.0032C83.3072 53.2132 83.1696 53.4784 83.1261 53.7992H85.6876C85.6687 53.4537 85.5527 53.1823 85.3401 52.9846C85.1275 52.7872 84.8364 52.6885 84.4677 52.6885Z" fill="#2A273F"/>
<path fill-rule="evenodd" clip-rule="evenodd" d="M86.8606 52.1005H87.818L89.2783 54.147L87.7137 56.3442H86.7848L88.4248 54.147L86.8606 52.1005ZM89.4679 52.1005H90.2265V56.3442H89.4679V52.1005ZM91.2696 54.147L92.9382 56.3442H91.9995L90.4161 54.147L91.8858 52.1005H92.8244L91.2696 54.147Z" fill="#2A273F"/>
<path fill-rule="evenodd" clip-rule="evenodd" d="M97.1033 55.7981C96.8966 55.9832 96.651 56.1208 96.3666 56.2101C96.0817 56.2994 95.7991 56.3443 95.5174 56.3443C95.1736 56.3443 94.8624 56.2933 94.5838 56.1916C94.3054 56.0897 94.0678 55.9433 93.8708 55.752C93.6739 55.5607 93.5219 55.3308 93.4158 55.0623C93.3093 54.7941 93.2565 54.4963 93.2565 54.1693C93.2565 53.8671 93.3048 53.5833 93.4016 53.3179C93.4988 53.0526 93.6392 52.8226 93.8241 52.6284C94.0085 52.434 94.235 52.28 94.5042 52.1656C94.7729 52.0514 95.0829 51.9944 95.4331 51.9944C95.7017 51.9944 95.9572 52.0407 96.1976 52.1333C96.4384 52.2257 96.6465 52.3553 96.8216 52.5219C96.9968 52.6885 97.1361 52.8891 97.239 53.1235C97.3424 53.358 97.3942 53.6171 97.3942 53.9008C97.3942 54.0921 97.3785 54.2587 97.347 54.4007H94.1006C94.1321 54.7957 94.2824 55.1025 94.551 55.3215C94.8201 55.5405 95.1611 55.6501 95.574 55.6501C95.8491 55.6501 96.0993 55.6085 96.3245 55.525C96.5496 55.4418 96.7308 55.3386 96.8684 55.2153L97.1033 55.7981ZM95.3956 52.6885C95.0079 52.6885 94.6979 52.7936 94.4667 53.0032C94.2349 53.2132 94.0974 53.4784 94.0538 53.7992H96.6154C96.5965 53.4537 96.4807 53.1823 96.268 52.9846C96.0553 52.7872 95.7644 52.6885 95.3956 52.6885Z" fill="#2A273F"/>
<path fill-rule="evenodd" clip-rule="evenodd" d="M98.3494 56.3442V52.0612H99.1172V55.2497L101.613 52.0612H102.381V56.3442H101.613V53.1558L99.1172 56.3442H98.3494ZM99.6836 49.8724C99.722 50.3737 99.9686 50.6241 100.423 50.6241C100.852 50.6241 101.085 50.3737 101.124 49.8724H101.844C101.844 50.0627 101.81 50.2387 101.743 50.4007C101.675 50.5623 101.58 50.7018 101.455 50.8195C101.33 50.9369 101.181 51.0303 101.008 51.1002C100.835 51.17 100.64 51.2046 100.423 51.2046C100.186 51.2046 99.9765 51.17 99.7941 51.1002C99.6117 51.0303 99.4595 50.9369 99.3382 50.8195C99.2163 50.7018 99.1239 50.5623 99.0598 50.4007C98.9959 50.2387 98.9636 50.0627 98.9636 49.8724H99.6836Z" fill="#2A273F"/>
</svg>
