<?xml version="1.0" encoding="UTF-8"?>
<svg width="13px" height="21px" viewBox="0 0 13 21" version="1.1" xmlns="http://www.w3.org/2000/svg" xmlns:xlink="http://www.w3.org/1999/xlink">
    <!-- Generator: Sketch 61 (89581) - https://sketch.com -->
    <title>superlux_active</title>
    <desc>Created with Sketch.</desc>
    <g id="кинодром" stroke="none" stroke-width="1" fill="none" fill-rule="evenodd">
        <g id="superlux_active">
            <g id="Group-6" transform="translate(0.000000, 0.092810)">
                <path d="M9.25943103,20.8146977 L2.88122414,20.8146977 C1.90122414,20.8146977 1.10672414,19.9866947 1.10672414,18.9653694 L1.10672414,2.94075024 C1.10672414,1.32172323 2.366,0.00921959909 3.91951724,0.00921959909 L8.22113793,0.00921959909 C9.77465517,0.00921959909 11.033931,1.32172323 11.033931,2.94075024 L11.033931,18.9653694 C11.033931,19.9866947 10.239431,20.8146977 9.25943103,20.8146977" id="Fill-4" fill="#FF0000"></path>
                <path d="M1.29391379,6.14252959 C1.56824138,6.10114831 1.48098276,6.57596395 1.29391379,6.68438543 C1.10672414,6.79268113 0,7.00952409 0,7.00952409 C0,7.00952409 0,6.33761279 1.29391379,6.14252959" id="Fill-6" fill="#FF0000"></path>
                <path d="M10.8467776,6.14252959 C10.57245,6.10114831 10.6595879,6.57596395 10.8467776,6.68438543 C11.0339672,6.79268113 12.1406914,7.00952409 12.1406914,7.00952409 C12.1406914,7.00952409 12.1406914,6.33761279 10.8467776,6.14252959" id="Fill-8" fill="#FF0000"></path>
                <path d="M3.65997414,0.723342324 C3.69581897,0.644856242 3.70523276,0.559326537 3.69340517,0.475557738 C3.05218103,0.710135532 2.50943966,1.11992344 2.13638793,1.64039685 C2.37088793,1.46103603 2.63326724,1.31211372 2.91435345,1.20142822 C3.20123276,1.0884787 3.54025,0.986220388 3.65997414,0.723342324" id="Fill-10" fill="#FFFFFF"></path>
                <path d="M8.48060862,0.723342324 C8.44488448,0.644856242 8.43547069,0.559326537 8.44729828,0.475557738 C9.08852241,0.710135532 9.63126379,1.11992344 10.0043155,1.64039685 C9.76981552,1.46103603 9.50743621,1.31211372 9.22635,1.20142822 C8.93947069,1.0884787 8.60045345,0.986220388 8.48060862,0.723342324" id="Fill-12" fill="#FFFFFF"></path>
                <path d="M2.6215,13.1375765 C2.60665517,11.6689812 2.57684483,10.3235234 2.57684483,9.82933784 C2.57684483,8.34740992 1.67227586,6.95277261 1.67227586,6.95277261 L1.67227586,12.699111 C1.98281034,12.8624979 2.30251724,12.9987165 2.6215,13.1375765" id="Fill-14" fill="#45474A"></path>
                <path d="M2.59615517,16.7898333 C2.63381034,15.8576853 2.63453448,14.5732303 2.62367241,13.3491493 C2.30312069,13.241231 1.98522414,13.1235018 1.67227586,12.9860254 L1.67227586,17.3445186 C1.98606897,17.1740881 2.29491379,16.9904507 2.59615517,16.7898333" id="Fill-16" fill="#45474A"></path>
                <path d="M1.67223966,17.6638337 L1.67223966,19.185382 C1.67223966,19.185382 2.45780862,19.1562012 2.57680862,17.180465 C2.58006724,17.1266316 2.58308448,17.0704084 2.58598103,17.0128017 C2.28618793,17.2413421 1.98929138,17.4756683 1.67223966,17.6638337" id="Fill-18" fill="#45474A"></path>
                <path d="M7.29232241,0.277657094 L4.8483569,0.277657094 C4.55302931,0.277657094 4.26615,0.310611186 3.99133966,0.371488211 C4.30247759,0.564055827 4.67033966,0.667823484 5.0478569,0.667823484 L7.09282241,0.667823484 C7.47033966,0.667823484 7.83820172,0.564055827 8.14933966,0.371488211 C7.87440862,0.310611186 7.58765,0.277657094 7.29232241,0.277657094" id="Fill-20" fill="#45474A"></path>
                <path d="M9.51907069,13.1375765 C9.53391552,11.6689812 9.56372586,10.3235234 9.56372586,9.82933784 C9.56372586,8.34740992 10.4684155,6.95277261 10.4684155,6.95277261 L10.4684155,12.699111 C10.157881,12.8624979 9.83817414,12.9987165 9.51907069,13.1375765" id="Fill-22" fill="#45474A"></path>
                <path d="M9.54453621,16.7898333 C9.50676034,15.8576853 9.5061569,14.5732303 9.51701897,13.3491493 C9.83757069,13.241231 10.1554672,13.1235018 10.4684155,12.9860254 L10.4684155,17.3445186 C10.1546224,17.1740881 9.84577759,16.9904507 9.54453621,16.7898333" id="Fill-24" fill="#45474A"></path>
                <path d="M10.4684517,17.6638337 L10.4684517,19.185382 C10.4684517,19.185382 9.68276207,19.1562012 9.56376207,17.180465 C9.56062414,17.1266316 9.5576069,17.0704084 9.55471034,17.0128017 C9.85438276,17.2413421 10.1514,17.4756683 10.4684517,17.6638337" id="Fill-26" fill="#45474A"></path>
                <path d="M9.11151379,18.8080073 C9.11151379,18.8080073 7.83787586,19.1019528 6.07037586,19.1019528 C4.30275517,19.1019528 3.02923793,18.8080073 3.02923793,18.8080073 C2.78049655,19.1340264 2.68442759,19.5709826 2.64906552,19.806315 C2.63337586,19.9105858 2.75623793,20.0090708 2.96128966,20.0553574 C3.49485862,20.1761052 4.6313931,20.3865335 6.07037586,20.3865335 C7.50935862,20.3865335 8.6458931,20.1761052 9.17934138,20.0553574 C9.3843931,20.0090708 9.50725517,19.9105858 9.49156552,19.806315 C9.45620345,19.5709826 9.36025517,19.1340264 9.11151379,18.8080073 M9.98084138,6.23275085 C9.92653103,6.58782491 9.7473069,7.29948236 9.1546,8.02661064 C9.07241034,8.12761115 8.93723793,8.18094144 8.79965172,8.17025023 C8.34247931,8.13465478 7.22573793,8.05805538 6.07037586,8.05805538 C4.91501379,8.05805538 3.79827241,8.13465478 3.34097931,8.17025023 C3.20351379,8.18094144 3.06834138,8.12761115 2.98603103,8.02661064 C2.39344483,7.29948236 2.2141,6.58782491 2.15978966,6.23275085 C2.13685862,6.08181608 2.2163931,5.93276799 2.36327241,5.8596904 C2.77023793,5.65718625 3.80334138,5.305634 6.07037586,5.305634 C8.33728966,5.305634 9.37051379,5.65718625 9.77747931,5.8596904 C9.92423793,5.93276799 10.0038931,6.08181608 9.98084138,6.23275085" id="Fill-28" fill="#45474A"></path>
                <path d="M2.78697759,20.3894515 C2.48549483,20.3061859 2.20597759,20.1576409 1.97787414,19.9596648 C1.91861552,19.9082212 1.86092586,19.8522495 1.7869431,19.8200501 C1.73577069,19.7977872 1.67397759,19.7901147 1.62075345,19.8039504 C1.94021897,20.2016635 2.42997759,20.4786288 2.99251207,20.5462979 C2.99251207,20.544537 2.99323621,20.5429019 2.99312909,20.541141 C2.99009828,20.4548566 2.87761552,20.4144816 2.78697759,20.3894515" id="Fill-30" fill="#FFFFFF"></path>
                <path d="M9.35371379,20.3894515 C9.65519655,20.3061859 9.93471379,20.1576409 10.1626966,19.9596648 C10.2220759,19.9082212 10.2797655,19.8522495 10.3537483,19.8200501 C10.4049207,19.7977872 10.4667138,19.7901147 10.5199379,19.8039504 C10.2004724,20.2016635 9.71071379,20.4786288 9.14817931,20.5462979 C9.14817931,20.544537 9.14745517,20.5429019 9.14756229,20.541141 C9.1505931,20.4548566 9.26295517,20.4144816 9.35371379,20.3894515" id="Fill-32" fill="#FFFFFF"></path>
            </g>
        </g>
    </g>
</svg>