<?xml version="1.0" encoding="UTF-8"?>
<svg width="13px" height="21px" viewBox="0 0 13 21" version="1.1" xmlns="http://www.w3.org/2000/svg" xmlns:xlink="http://www.w3.org/1999/xlink">
    <!-- Generator: Sketch 61 (89581) - https://sketch.com -->
    <title>superlux_no_active</title>
    <desc>Created with Sketch.</desc>
    <g id="кинодром" stroke="none" stroke-width="1" fill="none" fill-rule="evenodd" opacity="0.502929688">
        <g id="superlux_no_active" transform="translate(0.000000, 0.102030)">
            <path d="M9.25943103,20.8054781 L2.88122414,20.8054781 C1.90122414,20.8054781 1.10672414,19.9774751 1.10672414,18.9561498 L1.10672414,2.93153064 C1.10672414,1.31250364 2.366,2.48689958e-14 3.91951724,2.48689958e-14 L8.22113793,2.48689958e-14 C9.77465517,2.48689958e-14 11.033931,1.31250364 11.033931,2.93153064 L11.033931,18.9561498 C11.033931,19.9774751 10.239431,20.8054781 9.25943103,20.8054781" id="Fill-4" fill="#C8C7CC"></path>
            <path d="M1.29391379,6.67516583 C1.10672414,6.78346153 -6.77236045e-15,7.00030449 -6.77236045e-15,7.00030449 C-6.77236045e-15,7.00030449 -6.77236045e-15,6.32839319 1.29391379,6.13330999 C1.56824138,6.09192871 1.48098276,6.56674435 1.29391379,6.67516583 Z" id="Fill-6" fill="#C8C7CC"></path>
            <path d="M10.8467776,6.67516583 C11.0339672,6.78346153 12.1406914,7.00030449 12.1406914,7.00030449 C12.1406914,7.00030449 12.1406914,6.32839319 10.8467776,6.13330999 C10.57245,6.09192871 10.6595879,6.56674435 10.8467776,6.67516583 Z" id="Fill-8" fill="#C8C7CC"></path>
            <path d="M3.65997414,0.714122725 C3.69581897,0.635636643 3.70523276,0.550106938 3.69340517,0.466338139 C3.05218103,0.700915933 2.50943966,1.11070384 2.13638793,1.63117725 C2.37088793,1.45181643 2.63326724,1.30289412 2.91435345,1.19220862 C3.20123276,1.0792591 3.54025,0.977000789 3.65997414,0.714122725" id="Fill-10" fill="#FFFFFF"></path>
            <path d="M8.48060862,0.714122725 C8.44488448,0.635636643 8.43547069,0.550106938 8.44729828,0.466338139 C9.08852241,0.700915933 9.63126379,1.11070384 10.0043155,1.63117725 C9.76981552,1.45181643 9.50743621,1.30289412 9.22635,1.19220862 C8.93947069,1.0792591 8.60045345,0.977000789 8.48060862,0.714122725" id="Fill-12" fill="#FFFFFF"></path>
            <path d="M2.6215,13.1283569 C2.60665517,11.6597616 2.57684483,10.3143038 2.57684483,9.82011824 C2.57684483,8.33819032 1.67227586,6.94355301 1.67227586,6.94355301 L1.67227586,12.6898914 C1.98281034,12.8532783 2.30251724,12.9894969 2.6215,13.1283569" id="Fill-14" fill="#45474A"></path>
            <path d="M2.59615517,16.7806137 C2.63381034,15.8484657 2.63453448,14.5640107 2.62367241,13.3399297 C2.30312069,13.2320114 1.98522414,13.1142822 1.67227586,12.9768058 L1.67227586,17.335299 C1.98606897,17.1648685 2.29491379,16.9812311 2.59615517,16.7806137" id="Fill-16" fill="#45474A"></path>
            <path d="M1.67223966,17.6546141 L1.67223966,19.1761624 C1.67223966,19.1761624 2.45780862,19.1469816 2.57680862,17.1712455 C2.58006724,17.117412 2.58308448,17.0611888 2.58598103,17.0035821 C2.28618793,17.2321225 1.98929138,17.4664487 1.67223966,17.6546141" id="Fill-18" fill="#45474A"></path>
            <path d="M7.29232241,0.268437495 L4.8483569,0.268437495 C4.55302931,0.268437495 4.26615,0.301391587 3.99133966,0.362268612 C4.30247759,0.554836228 4.67033966,0.658603885 5.0478569,0.658603885 L7.09282241,0.658603885 C7.47033966,0.658603885 7.83820172,0.554836228 8.14933966,0.362268612 C7.87440862,0.301391587 7.58765,0.268437495 7.29232241,0.268437495" id="Fill-20" fill="#45474A"></path>
            <path d="M9.51907069,13.1283569 C9.53391552,11.6597616 9.56372586,10.3143038 9.56372586,9.82011824 C9.56372586,8.33819032 10.4684155,6.94355301 10.4684155,6.94355301 L10.4684155,12.6898914 C10.157881,12.8532783 9.83817414,12.9894969 9.51907069,13.1283569" id="Fill-22" fill="#45474A"></path>
            <path d="M9.54453621,16.7806137 C9.50676034,15.8484657 9.5061569,14.5640107 9.51701897,13.3399297 C9.83757069,13.2320114 10.1554672,13.1142822 10.4684155,12.9768058 L10.4684155,17.335299 C10.1546224,17.1648685 9.84577759,16.9812311 9.54453621,16.7806137" id="Fill-24" fill="#45474A"></path>
            <path d="M10.4684517,17.6546141 L10.4684517,19.1761624 C10.4684517,19.1761624 9.68276207,19.1469816 9.56376207,17.1712455 C9.56062414,17.117412 9.5576069,17.0611888 9.55471034,17.0035821 C9.85438276,17.2321225 10.1514,17.4664487 10.4684517,17.6546141" id="Fill-26" fill="#45474A"></path>
            <path d="M9.11151379,18.7987877 C9.11151379,18.7987877 7.83787586,19.0927332 6.07037586,19.0927332 C4.30275517,19.0927332 3.02923793,18.7987877 3.02923793,18.7987877 C2.78049655,19.1248068 2.68442759,19.561763 2.64906552,19.7970954 C2.63337586,19.9013662 2.75623793,19.9998512 2.96128966,20.0461378 C3.49485862,20.1668856 4.6313931,20.3773139 6.07037586,20.3773139 C7.50935862,20.3773139 8.6458931,20.1668856 9.17934138,20.0461378 C9.3843931,19.9998512 9.50725517,19.9013662 9.49156552,19.7970954 C9.45620345,19.561763 9.36025517,19.1248068 9.11151379,18.7987877 M9.98084138,6.22353125 C9.92653103,6.57860531 9.7473069,7.29026276 9.1546,8.01739104 C9.07241034,8.11839156 8.93723793,8.17172184 8.79965172,8.16103063 C8.34247931,8.12543518 7.22573793,8.04883578 6.07037586,8.04883578 C4.91501379,8.04883578 3.79827241,8.12543518 3.34097931,8.16103063 C3.20351379,8.17172184 3.06834138,8.11839156 2.98603103,8.01739104 C2.39344483,7.29026276 2.2141,6.57860531 2.15978966,6.22353125 C2.13685862,6.07259648 2.2163931,5.92354839 2.36327241,5.8504708 C2.77023793,5.64796665 3.80334138,5.29641441 6.07037586,5.29641441 C8.33728966,5.29641441 9.37051379,5.64796665 9.77747931,5.8504708 C9.92423793,5.92354839 10.0038931,6.07259648 9.98084138,6.22353125" id="Fill-28" fill="#45474A"></path>
            <path d="M2.78697759,20.3802319 C2.48549483,20.2969663 2.20597759,20.1484213 1.97787414,19.9504452 C1.91861552,19.8990016 1.86092586,19.8430299 1.7869431,19.8108305 C1.73577069,19.7885676 1.67397759,19.7808951 1.62075345,19.7947308 C1.94021897,20.1924439 2.42997759,20.4694092 2.99251207,20.5370783 C2.99251207,20.5353174 2.99323621,20.5336823 2.99312909,20.5319214 C2.99009828,20.445637 2.87761552,20.405262 2.78697759,20.3802319" id="Fill-30" fill="#FFFFFF"></path>
            <path d="M9.35371379,20.3802319 C9.65519655,20.2969663 9.93471379,20.1484213 10.1626966,19.9504452 C10.2220759,19.8990016 10.2797655,19.8430299 10.3537483,19.8108305 C10.4049207,19.7885676 10.4667138,19.7808951 10.5199379,19.7947308 C10.2004724,20.1924439 9.71071379,20.4694092 9.14817931,20.5370783 C9.14817931,20.5353174 9.14745517,20.5336823 9.14756229,20.5319214 C9.1505931,20.445637 9.26295517,20.405262 9.35371379,20.3802319" id="Fill-32" fill="#FFFFFF"></path>
        </g>
    </g>
</svg>